<svg width="450" height="200" viewBox="0 0 450 200" fill="none" xmlns="http://www.w3.org/2000/svg">
<rect width="450" height="200" fill="#F5F5F5"/>
<rect width="450" height="200" fill="url(#paint0_radial_0_1)"/>
<path d="M208.749 53.6377C208.214 53.7764 207.893 54.3222 208.032 54.8568C208.171 55.3913 208.716 55.7123 209.251 55.5737L208.749 53.6377ZM290.236 63.3465L291.122 62.8825L290.236 63.3465ZM255.995 93.0944L256.774 92.4675L255.995 93.0944ZM321.228 38.8481L321.828 38.048L321.228 38.8481ZM342.432 99.4618L349.355 95.1338L345.027 88.2103L338.104 92.5384L342.432 99.4618ZM209.251 55.5737C209.86 55.4158 210.487 55.2574 211.133 55.0991L210.656 53.1567C210.003 53.3171 209.366 53.4776 208.749 53.6377L209.251 55.5737ZM214.924 54.2167C216.157 53.9444 217.436 53.6757 218.755 53.4135L218.365 51.4519C217.032 51.7168 215.739 51.9884 214.492 52.2637L214.924 54.2167ZM222.581 52.6927C223.84 52.4684 225.127 52.2519 226.435 52.0455L226.124 50.0699C224.802 50.2785 223.503 50.4972 222.231 50.7237L222.581 52.6927ZM230.297 51.4756C231.573 51.3004 232.864 51.1362 234.167 50.9848L233.936 48.9982C232.619 49.1512 231.314 49.3172 230.025 49.4942L230.297 51.4756ZM238.048 50.5765C239.339 50.4552 240.636 50.348 241.936 50.2566L241.796 48.2615C240.48 48.354 239.167 48.4626 237.861 48.5853L238.048 50.5765ZM245.827 50.0323C247.128 49.9743 248.427 49.9339 249.721 49.9128L249.688 47.9131C248.375 47.9345 247.057 47.9755 245.738 48.0343L245.827 50.0323ZM253.611 49.9099C254.918 49.93 256.215 49.9721 257.498 50.0381L257.6 48.0407C256.292 47.9734 254.971 47.9306 253.642 47.9101L253.611 49.9099ZM261.371 50.3161C262.675 50.4377 263.957 50.5871 265.215 50.7665L265.497 48.7865C264.205 48.6022 262.89 48.4491 261.557 48.3248L261.371 50.3161ZM269.028 51.4208C270.313 51.6815 271.563 51.9787 272.773 52.3147L273.308 50.3877C272.049 50.038 270.753 49.73 269.425 49.4607L269.028 51.4208ZM276.421 53.497C277.643 53.9556 278.807 54.463 279.908 55.0218L280.814 53.2384C279.641 52.6432 278.408 52.1067 277.124 51.6245L276.421 53.497ZM283.16 56.9575C284.207 57.6894 285.17 58.4854 286.039 59.349L287.449 57.9305C286.492 56.9794 285.44 56.1104 284.305 55.3179L283.16 56.9575ZM288.403 62.2132C288.745 62.7261 289.061 63.2584 289.35 63.8106L291.122 62.8825C290.8 62.2674 290.448 61.6747 290.067 61.1038L288.403 62.2132ZM289.35 63.8106C289.647 64.3774 289.923 64.9439 290.179 65.5097L292.002 64.6861C291.73 64.0847 291.437 63.4833 291.122 62.8825L289.35 63.8106ZM291.511 69.0099C291.891 70.2326 292.181 71.447 292.386 72.6474L294.357 72.3102C294.137 71.0226 293.827 69.7227 293.421 68.4164L291.511 69.0099ZM292.762 76.362C292.801 77.6272 292.749 78.8701 292.614 80.084L294.601 80.3056C294.747 78.9981 294.803 77.6603 294.761 76.2997L292.762 76.362ZM291.934 83.7509C291.615 84.97 291.211 86.1483 290.731 87.2776L292.571 88.0604C293.09 86.8419 293.525 85.5711 293.869 84.2569L291.934 83.7509ZM289.024 90.5859C288.366 91.6563 287.635 92.6626 286.842 93.5952L288.365 94.8911C289.225 93.8797 290.017 92.7901 290.728 91.6331L289.024 90.5859ZM284.22 96.2181C283.267 97.0268 282.258 97.7431 281.207 98.3564L282.215 100.084C283.37 99.4097 284.474 98.6252 285.514 97.7432L284.22 96.2181ZM277.87 99.9012C276.711 100.306 275.52 100.59 274.311 100.743L274.562 102.727C275.915 102.556 277.243 102.239 278.529 101.789L277.87 99.9012ZM270.666 100.801C269.481 100.687 268.287 100.443 267.095 100.056L266.477 101.958C267.808 102.39 269.145 102.664 270.476 102.792L270.666 100.801ZM263.737 98.5695C262.715 97.9913 261.7 97.2962 260.701 96.4754L259.432 98.0212C260.516 98.9119 261.626 99.6729 262.752 100.31L263.737 98.5695ZM258.005 93.905C257.591 93.4508 257.18 92.9719 256.774 92.4675L255.216 93.7212C255.647 94.257 256.085 94.7676 256.528 95.2534L258.005 93.905ZM256.774 92.4675C256.362 91.9549 255.988 91.4268 255.652 90.8844L253.952 91.9388C254.332 92.5508 254.753 93.1455 255.216 93.7212L256.774 92.4675ZM254.041 87.3903C253.652 86.1741 253.403 84.9027 253.286 83.5853L251.294 83.7611C251.423 85.2158 251.699 86.6337 252.136 88.0003L254.041 87.3903ZM253.312 79.6696C253.432 78.3948 253.657 77.0906 253.981 75.7655L252.038 75.2914C251.693 76.7023 251.451 78.1022 251.321 79.4817L253.312 79.6696ZM255.161 71.9442C255.615 70.7242 256.142 69.4956 256.739 68.2651L254.939 67.3928C254.317 68.6767 253.764 69.9638 253.287 71.2474L255.161 71.9442ZM258.644 64.7185C259.317 63.5776 260.044 62.4413 260.821 61.3151L259.175 60.1793C258.372 61.343 257.619 62.5193 256.921 63.7029L258.644 64.7185ZM263.227 58.0606C264.057 57.0109 264.927 55.9755 265.834 54.9589L264.342 53.6272C263.409 54.6731 262.512 55.7392 261.658 56.8209L263.227 58.0606ZM268.617 52.0161C269.569 51.0651 270.553 50.1366 271.564 49.235L270.232 47.7425C269.193 48.6691 268.183 49.6234 267.204 50.601L268.617 52.0161ZM274.663 46.6239C275.722 45.7818 276.804 44.9709 277.906 44.1953L276.755 42.56C275.621 43.3584 274.507 44.1926 273.418 45.0583L274.663 46.6239ZM281.285 41.966C282.441 41.2541 283.612 40.5832 284.795 39.9576L283.86 38.1896C282.637 38.8364 281.428 39.5292 280.236 40.2633L281.285 41.966ZM288.428 38.1977C289.67 37.651 290.92 37.1574 292.173 36.7216L291.516 34.8325C290.21 35.2866 288.911 35.8 287.622 36.3672L288.428 38.1977ZM296.018 35.5723C297.333 35.2445 298.646 34.9854 299.952 34.7999L299.671 32.8198C298.293 33.0154 296.912 33.2882 295.534 33.6317L296.018 35.5723ZM303.928 34.4677C305.265 34.4369 306.589 34.4912 307.895 34.636L308.116 32.6482C306.717 32.493 305.304 32.4355 303.882 32.4682L303.928 34.4677ZM311.786 35.3562C313.052 35.6898 314.296 36.1202 315.512 36.6533L316.315 34.8215C315.001 34.2458 313.659 33.7817 312.295 33.4222L311.786 35.3562ZM318.989 38.5118C319.542 38.8652 320.089 39.2438 320.628 39.6481L321.828 38.048C321.249 37.6137 320.661 37.2065 320.064 36.8259L318.989 38.5118ZM320.628 39.6481C321.15 40.039 321.66 40.4336 322.159 40.8319L323.406 39.2685C322.891 38.8577 322.365 38.4508 321.828 38.048L320.628 39.6481ZM325.092 43.3228C326.063 44.2009 326.986 45.0929 327.864 45.9966L329.299 44.6029C328.391 43.6684 327.436 42.7464 326.433 41.8395L325.092 43.3228ZM330.45 48.8412C331.295 49.8356 332.09 50.8407 332.838 51.8536L334.447 50.6657C333.672 49.6165 332.849 48.5756 331.974 47.5462L330.45 48.8412ZM335.013 55.0251C335.713 56.1246 336.361 57.2297 336.96 58.3366L338.719 57.3838C338.097 56.2366 337.426 55.0913 336.701 53.9518L335.013 55.0251ZM338.67 61.7748C339.211 62.963 339.699 64.1491 340.139 65.3284L342.012 64.6294C341.557 63.4075 341.051 62.1786 340.491 60.9472L338.67 61.7748ZM341.357 68.9755C341.729 70.2313 342.05 71.4737 342.323 72.6971L344.275 72.2613C343.992 70.9945 343.66 69.7079 343.275 68.4073L341.357 68.9755ZM343.032 76.4743C343.231 77.7816 343.379 79.0578 343.481 80.2946L345.474 80.1304C345.368 78.8485 345.215 77.5265 345.009 76.1726L343.032 76.4743ZM343.66 84.1348C343.674 85.4838 343.634 86.7653 343.552 87.9664L345.547 88.1028C345.633 86.849 345.674 85.5151 345.66 84.1142L343.66 84.1348ZM343.118 91.76C343.009 92.4218 342.887 93.0401 342.755 93.6113L344.704 94.0608C344.846 93.4461 344.976 92.7865 345.092 92.0863L343.118 91.76Z" fill="black"/>
<path d="M20.5379 48.5011L30.5186 55.1633" stroke="black" stroke-width="2" stroke-linecap="round"/>
<path d="M56.914 136.637L66.8948 143.3" stroke="black" stroke-width="2" stroke-linecap="round"/>
<path d="M59.1787 26.2071L69.1595 32.8693" stroke="black" stroke-width="2" stroke-linecap="round"/>
<path d="M95.5549 114.343L105.536 121.006" stroke="black" stroke-width="2" stroke-linecap="round"/>
<path d="M73.2015 73.6556L83.1823 80.3178" stroke="black" stroke-width="2" stroke-linecap="round"/>
<path d="M109.578 161.792L119.558 168.454" stroke="black" stroke-width="2" stroke-linecap="round"/>
<path d="M110.204 57.6618L120.185 64.324" stroke="black" stroke-width="2" stroke-linecap="round"/>
<path d="M146.58 145.798L156.561 152.46" stroke="black" stroke-width="2" stroke-linecap="round"/>
<defs>
<radialGradient id="paint0_radial_0_1" cx="0" cy="0" r="1" gradientUnits="userSpaceOnUse" gradientTransform="translate(225 100) rotate(90) scale(100 225)">
<stop stop-color="#DEB5FF" stop-opacity="0.22"/>
<stop offset="1" stop-color="#D1FFFA" stop-opacity="0"/>
</radialGradient>
</defs>
</svg>
